{"title":"Battleship.2012.BDRip.DivX.AC3-Atilla82","uid":7509440,"size":1470777714,"categoryP":"video","categoryS":"movies","magnet":"?xt=urn:btih:c42da1b882dd299559d6a342164d99c31e070152&amp;dn=Battleship.2012.BDRip.DivX.AC3-Atilla82&amp;tr=udp%3A%2F%2Ftracker.openbittorrent.com%3A80&amp;tr=udp%3A%2F%2Fopen.demonii.com%3A1337&amp;tr=udp%3A%2F%2Ftracker.coppersurfer.tk%3A6969&amp;tr=udp%3A%2F%2Fexodus.desync.com%3A6969","seeders":0,"leechers":1,"uploader":"Atilla82","files":7,"time":1344270407,"description":"Battleship.2012.BDRip.DivX.AC3-Atilla82\n\n\n\n &lt;a href=&quot;\nhttp://www.imdb.com/title/tt1440129/&quot; rel=&quot;nofollow&quot; target=&quot;_NEW&quot;&gt;\nhttp://www.imdb.com/title/tt1440129/&lt;/a&gt;\n\n\nA fleet of ships is forced to do battle \nwith an armada of unknown origins in \norder to discover and thwart their \ndestructive goals.\n\n\n\n\n\nGeneral\nComplete name : Battleship.2012.BDRip.DivX.AC3-Atilla82.avi\nFormat : AVI\nFormat/Info : Audio Video Interleave\nFile size : 1.37 GiB\nDuration : 2h 11mn\nOverall bit rate : 1 493 Kbps\n\nVideo\nID : 0\nFormat : MPEG-4 Visual\nFormat settings, BVOP : 1\nFormat settings, QPel : No\nFormat settings, GMC : No warppoints\nFormat settings, Matrix : Default (H.263)\nCodec ID : DX50\nCodec ID/Hint : DivX 5\nDuration : 2h 11mn\nBit rate : 1 100 Kbps\nWidth : 720 pixels\nHeight : 300 pixels\nDisplay aspect ratio : 2.40:1\nFrame rate : 23.976 fps\nColor space : YUV\nChroma subsampling : 4:2:0\nBit depth : 8 bits\nScan type : Progressive\nCompression mode : Lossy\nBits/(Pixel*Frame) : 0.212\nStream size : 1.01 GiB (74%)\nWriting library : DivX 3330\n\nAudio\nID : 1\nFormat : AC-3\nFormat/Info : Audio Coding 3\nMode extension : CM (complete main)\nFormat settings, Endianness : Big\nCodec ID : 2000\nDuration : 2h 11mn\nSource duration : 2h 11mn\nBit rate mode : Constant\nBit rate : 384 Kbps\nChannel(s) : 6 channels\nChannel positions : Front: L C R, Side: L R, LFE\nSampling rate : 48.0 KHz\nBit depth : 16 bits\nCompression mode : Lossy\nStream size : 360 MiB (26%)\nAlignment : Aligned on interleaves\nInterleave, duration : 42 ms (1.00 video frame)\n\n\n\nscreenshots &lt;a href=&quot;\nhttp://www.pohrani.com/f/1k/Ro/2snU2GVx/screenshots.jpg&quot; rel=&quot;nofollow&quot; target=&quot;_NEW&quot;&gt;\nhttp://www.pohrani.com/f/1k/Ro/2snU2GVx/screenshots.jpg&lt;/a&gt;\n\n\n","torrent":{"xt":"urn:btih:c42da1b882dd299559d6a342164d99c31e070152","amp;dn":"Battleship.2012.BDRip.DivX.AC3-Atilla82","amp;tr":["udp%3A%2F%2Ftracker.openbittorrent.com%3A80","udp%3A%2F%2Fopen.demonii.com%3A1337","udp%3A%2F%2Ftracker.coppersurfer.tk%3A6969","udp%3A%2F%2Fexodus.desync.com%3A6969"],"infoHash":"c42da1b882dd299559d6a342164d99c31e070152","infoHashBuffer":{"type":"Buffer","data":[196,45,161,184,130,221,41,149,89,214,163,66,22,77,153,195,30,7,1,82]},"announce":[],"urlList":[]}}